# xmcd CD database file generated by MAGIX_Freedb v0.9beta0
# 
# Track frame offsets:
#      150
#      17681
#      27864
#      41204
#      55557
#      69057
#      83338
#      99534
#      111708
#      123347
#      140412
#      153868
#      165937
#      178903
# 
# Disc length: 2564 seconds
# 
# Revision: 0 
# Processed by: cddbd v1.4PL0 Copyright (c) Steve Scherf et al.
# Submitted via: MAGIX_Freedb v0.9beta0
# 
DISCID=a80a020e
DTITLE=Ben Steneker - Songs about love
DYEAR=2003
DGENRE=
TTITLE0=Ben Steneker - Ain't it a beautiful world
TTITLE1=Ben Steneker - Making Plans (with Carmen)
TTITLE2=Ben Steneker - Darling I love you
TTITLE3=Ben Steneker - Tell me
TTITLE4=Ben Steneker - Falling in love
TTITLE5=Ben Steneker - Some days
TTITLE6=Ben Steneker - Little mystery girl
TTITLE7=Ben Steneker (with Carmen) - I will love you
TTITLE8=Ben Steneker (with Carmen) - Rosalie
TTITLE9=Ben Steneker - Every time I'm with you
TTITLE10=Ben Steneker - Donna Carmela
TTITLE11=Ben Steneker - Young and so in love
TTITLE12=Ben Steneker (with Carmen) - The sweetest gift
TTITLE13=Ben Steneker - Darling (bonus track)
EXTD=
EXTT0=3.50
EXTT1=2.12
EXTT2=2.54
EXTT3=3.10
EXTT4=2.56
EXTT5=3.07
EXTT6=3.33
EXTT7=2.41
EXTT8=2.32
EXTT9=3.48
EXTT10=2.55
EXTT11=2.37
EXTT12=2.49
EXTT13=2.59
PLAYORDER=
